<svg viewBox="-24 0 480 480" xmlns="http://www.w3.org/2000/svg"><path d="m0 360c0 4.417969 3.582031 8 8 8h10.457031l21.542969 57.457031v46.542969c0 4.417969 3.582031 8 8 8h336c4.417969 0 8-3.582031 8-8v-46.542969l21.542969-57.457031h10.457031c4.417969 0 8-3.582031 8-8v-32c0-4.417969-3.582031-8-8-8h-416c-4.417969 0-8 3.582031-8 8zm376 104h-320v-32h320zm2.457031-48h-324.914062l-18-48h44.457031v16c0 4.417969 3.582031 8 8 8s8-3.582031 8-8v-16h16v16c0 4.417969 3.582031 8 8 8s8-3.582031 8-8v-16h64v16c0 4.417969 3.582031 8 8 8s8-3.582031 8-8v-16h16v16c0 4.417969 3.582031 8 8 8s8-3.582031 8-8v-16h72v16c0 4.417969 3.582031 8 8 8s8-3.582031 8-8v-16h16v16c0 4.417969 3.582031 8 8 8s8-3.582031 8-8v-16h36.457031zm-362.457031-80h400v16h-400zm0 0"/><path d="m264 0h-96c-4.417969 0-8 3.582031-8 8v93.183594l-27.847656 34.816406h-12.152344c-4.417969 0-8 3.582031-8 8v32h-64c-3.335938-.003906-6.320312 2.0625-7.496094 5.183594l-22.046875 58.816406h-10.457031c-4.417969 0-8 3.582031-8 8v32c0 4.417969 3.582031 8 8 8h416c4.417969 0 8-3.582031 8-8v-32c0-4.417969-3.582031-8-8-8h-10.457031l-22.046875-58.816406c-1.175782-3.121094-4.160156-5.1875-7.496094-5.183594h-64v-32c0-4.417969-3.582031-8-8-8h-12.152344l-27.847656-34.816406v-93.183594c0-4.417969-3.582031-8-8-8zm-8 96h-16v-80h16zm-32 0h-16v-80h16zm-48-80h16v80h-16zm32 136v24h-16v-24zm32 0v24h-16v-24zm32 0v24h-16v-24zm-96 24h-16v-24h16zm-48-24h16v24h-16zm288 120h-400v-16h400zm-19.542969-32h-84.457031v-16c0-4.417969-3.582031-8-8-8s-8 3.582031-8 8v16h-16v-16c0-4.417969-3.582031-8-8-8s-8 3.582031-8 8v16h-88v-16c0-4.417969-3.582031-8-8-8s-8 3.582031-8 8v16h-16v-16c0-4.417969-3.582031-8-8-8s-8 3.582031-8 8v16h-92.457031l18-48h324.914062zm-92.457031-64h-16v-24h16zm-151.351562-40 19.199218-24h88.3125l19.199219 24zm0 0"/></svg>