<svg id="Capa_1" enable-background="new 0 0 473.411 473.411" viewBox="0 0 473.411 473.411" xmlns="http://www.w3.org/2000/svg"><path d="m443.823 295.882h-147.941v-88.765h73.971c24.474 0 44.382-19.908 44.382-44.382v-59.176c0-24.474-19.908-44.382-44.382-44.382s-44.382 19.908-44.382 44.382v14.794h-29.588v-59.177c-.001-32.636-26.541-59.176-59.177-59.176-32.637 0-59.176 26.54-59.176 59.176v88.765h-29.588v-14.794c0-24.474-19.908-44.382-44.382-44.382s-44.382 19.908-44.382 44.382v59.176c0 24.474 19.908 44.382 44.382 44.382h73.971v59.176h-147.943v29.588h32.256l22.456 112.258c4.117 20.674 22.422 35.685 43.515 35.685h217.78c21.093 0 39.398-15.011 43.515-35.671l22.457-112.27h32.256c0-.001 0-29.589 0-29.589zm-251.5-88.764h-88.765c-8.163 0-14.794-6.631-14.794-14.794v-59.176c0-8.163 6.631-14.794 14.794-14.794s14.794 6.631 14.794 14.794v29.588c0 8.177 6.617 14.794 14.794 14.794h59.176c8.177 0 14.794-6.617 14.794-14.794v-103.56c0-16.311 13.277-29.588 29.588-29.588s29.588 13.277 29.588 29.588v73.971c0 8.177 6.617 14.794 14.794 14.794h59.176c8.177 0 14.794-6.617 14.794-14.794v-29.588c0-8.163 6.631-14.794 14.794-14.794s14.794 6.631 14.794 14.794v59.176c0 8.163-6.631 14.794-14.794 14.794h-88.765c-8.177 0-14.794 6.617-14.794 14.794v103.559h-59.176v-73.971c.003-8.177-6.614-14.793-14.792-14.793zm167.778 224.829c-1.372 6.877-7.469 11.876-14.505 11.876h-217.78c-7.036 0-13.133-4.999-14.505-11.89l-21.296-106.463h289.381s-21.295 106.477-21.295 106.477z"/></svg>